<?xml version="1.0" encoding="UTF-8"?>
<svg version="1.1" xmlns="http://www.w3.org/2000/svg" width="512" height="512">
<path d="M0 0 C168.96 0 337.92 0 512 0 C512 168.96 512 337.92 512 512 C343.04 512 174.08 512 0 512 C0 343.04 0 174.08 0 0 Z " fill="#209CEE" transform="translate(0,0)"/>
<path d="M0 0 C0.80050781 0.20109375 1.60101563 0.4021875 2.42578125 0.609375 C10.36833302 2.74125469 17.66312234 6.35786548 25 10 C25.96164062 10.474375 26.92328125 10.94875 27.9140625 11.4375 C58.25865218 27.19162325 80.66311025 54.50322068 93.20117188 86.00634766 C93.77972086 87.45024465 94.37726693 88.8865773 94.98632812 90.31787109 C97.50107096 96.32518126 99.23104803 102.26967949 100.625 108.625 C100.93050781 109.93017578 100.93050781 109.93017578 101.2421875 111.26171875 C104.44601548 125.53518314 105.3810663 139.61650408 105.3125 154.1875 C105.30976578 155.40031647 105.30976578 155.40031647 105.30697632 156.63763428 C105.25907828 169.29176594 104.70269251 181.59581186 102 194 C101.83371094 194.78358887 101.66742188 195.56717773 101.49609375 196.37451172 C94.48338889 228.32777155 77.89120774 260.30379187 52 281 C50.97648438 281.82242187 49.95296875 282.64484375 48.8984375 283.4921875 C14.49135239 310.31706884 -29.95961861 319.16639871 -72.80102539 314.1796875 C-111.96802636 308.85113305 -147.87298123 291.35639219 -172.36132812 259.55859375 C-200.32897697 221.87503876 -210.52142177 172.87919572 -203.81640625 126.64453125 C-196.9045714 85.31157478 -178.83962085 46.47755158 -143.875 21.5 C-141.61536369 19.94628083 -139.32307819 18.45690189 -137 17 C-136.43603516 16.64502441 -135.87207031 16.29004883 -135.29101562 15.92431641 C-95.19793013 -8.91099567 -44.88627083 -12.46472513 0 0 Z " fill="#209CEE" transform="translate(306,102)"/>
<path d="M0 0 C0.80050781 0.20109375 1.60101563 0.4021875 2.42578125 0.609375 C10.36833302 2.74125469 17.66312234 6.35786548 25 10 C25.96164062 10.474375 26.92328125 10.94875 27.9140625 11.4375 C58.25865218 27.19162325 80.66311025 54.50322068 93.20117188 86.00634766 C93.77972086 87.45024465 94.37726693 88.8865773 94.98632812 90.31787109 C97.50107096 96.32518126 99.23104803 102.26967949 100.625 108.625 C100.93050781 109.93017578 100.93050781 109.93017578 101.2421875 111.26171875 C104.44601548 125.53518314 105.3810663 139.61650408 105.3125 154.1875 C105.30976578 155.40031647 105.30976578 155.40031647 105.30697632 156.63763428 C105.25907828 169.29176594 104.70269251 181.59581186 102 194 C101.83371094 194.78358887 101.66742188 195.56717773 101.49609375 196.37451172 C94.48338889 228.32777155 77.89120774 260.30379187 52 281 C50.97648438 281.82242187 49.95296875 282.64484375 48.8984375 283.4921875 C14.49135239 310.31706884 -29.95961861 319.16639871 -72.80102539 314.1796875 C-111.96802636 308.85113305 -147.87298123 291.35639219 -172.36132812 259.55859375 C-200.32897697 221.87503876 -210.52142177 172.87919572 -203.81640625 126.64453125 C-196.9045714 85.31157478 -178.83962085 46.47755158 -143.875 21.5 C-141.61536369 19.94628083 -139.32307819 18.45690189 -137 17 C-136.43603516 16.64502441 -135.87207031 16.29004883 -135.29101562 15.92431641 C-95.19793013 -8.91099567 -44.88627083 -12.46472513 0 0 Z M-86 35 C-86.88816406 35.21398437 -87.77632813 35.42796875 -88.69140625 35.6484375 C-110.25117316 41.11829599 -130.53650761 58.18557615 -142.02880859 76.90234375 C-143.0346697 78.59245448 -144.01778615 80.29603791 -145 82 C-145.57492188 82.97066406 -146.14984375 83.94132812 -146.7421875 84.94140625 C-152.13098802 94.36510468 -155.11846758 104.00801623 -157.6875 114.5 C-158.00956421 115.7991333 -158.00956421 115.7991333 -158.33813477 117.12451172 C-161.03787738 128.58574423 -161.18648684 139.99090533 -161.18530273 151.70410156 C-161.18747712 154.09979362 -161.20566299 156.49501462 -161.22460938 158.890625 C-161.27500729 172.39015318 -160.67134151 186.09941507 -156.8125 199.125 C-156.59964355 199.86379395 -156.38678711 200.60258789 -156.16748047 201.36376953 C-147.93282864 228.65458792 -130.22320986 252.52967703 -104.97631836 266.08666992 C-86.35631452 275.55074855 -68.2085361 278.17674125 -47.5625 278.1875 C-46.32951172 278.19974609 -45.09652344 278.21199219 -43.82617188 278.22460938 C-32.20039209 278.24303375 -21.63010654 276.59856381 -10.625 272.875 C-9.72160889 272.57005615 -8.81821777 272.2651123 -7.88745117 271.95092773 C14.98597221 263.92334354 32.9304333 247.74907581 45 227 C45.56460938 226.06285156 46.12921875 225.12570312 46.7109375 224.16015625 C53.25500171 212.84922294 56.56992456 200.75438441 59 188 C59.16556396 187.2687793 59.33112793 186.53755859 59.50170898 185.78417969 C60.97296418 179.10236828 61.46747906 172.57990224 61.6875 165.75 C61.72584961 164.61900879 61.76419922 163.48801758 61.80371094 162.32275391 C62.85962737 124.99453968 55.67728168 88.64516632 29.47802734 60.3671875 C0.2602758 30.30899302 -47.05367769 23.72493211 -86 35 Z " fill="#FDFEFE" transform="translate(306,102)"/>
<path d="M0 0 C0.33 0 0.66 0 1 0 C1 13.53 1 27.06 1 41 C-12.53 41 -26.06 41 -40 41 C-36.77794772 39.38897386 -33.66489916 38.09649079 -30.3125 36.8125 C-17.71232801 31.5611525 -8.22889841 22.19948407 -2.96484375 9.59765625 C-1.78548854 6.42246916 -0.80417774 3.28981803 0 0 Z " fill="#000000" transform="translate(511,471)"/>
<path d="M0 0 C1.61102614 3.22205228 2.90350921 6.33510084 4.1875 9.6875 C9.4388475 22.28767199 18.80051593 31.77110159 31.40234375 37.03515625 C34.57753084 38.21451146 37.71018197 39.19582226 41 40 C41 40.33 41 40.66 41 41 C27.47 41 13.94 41 0 41 C0 27.47 0 13.94 0 0 Z " fill="#000000" transform="translate(0,471)"/>
<path d="M0 0 C13.53 0 27.06 0 41 0 C41 13.53 41 27.06 41 41 C39.38897386 37.77794772 38.09649079 34.66489916 36.8125 31.3125 C31.5611525 18.71232801 22.19948407 9.22889841 9.59765625 3.96484375 C6.42246916 2.78548854 3.28981803 1.80417774 0 1 C0 0.67 0 0.34 0 0 Z " fill="#000000" transform="translate(471,0)"/>
<path d="M0 0 C13.53 0 27.06 0 41 0 C37.77794772 1.61102614 34.66489916 2.90350921 31.3125 4.1875 C18.71232801 9.4388475 9.22889841 18.80051593 3.96484375 31.40234375 C2.78548854 34.57753084 1.80417774 37.71018197 1 41 C0.67 41 0.34 41 0 41 C0 27.47 0 13.94 0 0 Z " fill="#000000" transform="translate(0,0)"/>
</svg>
